<?xml version="1.0" standalone="no"?>
<!DOCTYPE svg PUBLIC "-//W3C//DTD SVG 20010904//EN"
 "http://www.w3.org/TR/2001/REC-SVG-20010904/DTD/svg10.dtd">
<svg version="1.0" xmlns="http://www.w3.org/2000/svg"
 width="320.000000pt" height="320.000000pt" viewBox="0 0 320.000000 320.000000"
 preserveAspectRatio="xMidYMid meet">
<metadata>
Created by potrace 1.11, written by Peter Selinger 2001-2013
</metadata>
<g transform="translate(0.000000,320.000000) scale(0.100000,-0.100000)"
fill="#000000" stroke="none">
<path d="M831 2548 c-104 -113 -212 -184 -364 -240 -45 -16 -83 -29 -85 -28
-1 1 -20 -1 -42 -5 -53 -9 -60 -22 -109 -210 -11 -38 -22 -86 -25 -105 -3 -19
-9 -53 -13 -75 -8 -47 -9 -277 -1 -320 4 -16 11 -59 17 -95 10 -59 39 -167 62
-230 5 -14 12 -34 16 -45 33 -96 143 -279 232 -384 65 -78 229 -231 247 -231
2 0 -1 11 -6 25 -13 33 -18 65 -27 145 -13 127 -4 219 33 346 108 373 453 628
846 625 282 -3 557 -152 714 -388 74 -111 125 -245 141 -368 9 -73 6 -219 -7
-281 -6 -30 -11 -57 -12 -61 0 -5 -4 -16 -10 -26 -34 -65 164 117 277 254 70
84 178 281 219 399 24 69 54 189 62 245 3 28 9 59 12 70 7 30 10 278 4 290 -4
6 -7 15 -7 20 -5 89 -63 318 -95 374 -4 8 -49 25 -98 37 -172 42 -317 127
-439 257 l-69 75 -22 -27 c-127 -155 -296 -262 -484 -305 l-93 -22 -29 -85
c-34 -100 -66 -247 -66 -306 0 -24 -4 -43 -10 -43 -5 0 -10 21 -10 48 0 26 -5
65 -10 87 -5 22 -11 51 -14 65 -9 47 -35 135 -54 185 l-20 49 -73 17 c-41 9
-92 24 -115 32 -140 52 -297 164 -384 274 l-25 31 -64 -70z m776 -743 c0 -8
-4 -12 -9 -9 -5 3 -6 10 -3 15 9 13 12 11 12 -6z"/>
</g>
</svg>
