<?xml version="1.0" encoding="utf-8"?>
<!-- Generator: Adobe Illustrator 22.0.0, SVG Export Plug-In . SVG Version: 6.00 Build 0)  -->
<svg version="1.1" id="Layer_1" xmlns="http://www.w3.org/2000/svg" xmlns:xlink="http://www.w3.org/1999/xlink" x="0px" y="0px"
	 viewBox="0 0 120 80" style="enable-background:new 0 0 120 80;" xml:space="preserve">
<style type="text/css">
	.st0{fill:#4995D1;}
</style>
<path class="st0" d="M34.7,3.7c-5.1,7-12.9,11.6-21.5,12.7c-9.1,21.7-2.1,46.8,16.9,60.7C24.9,60.5,34,42.8,50.5,37.5
	c3.1-1,6.3-1.5,9.6-1.5c0-6.7-1.3-13.4-3.9-19.6C47.6,15.3,39.8,10.7,34.7,3.7z"/>
<path class="st0" d="M85.6,3.7c-5.1,7-12.9,11.6-21.5,12.7c-2.6,6.2-3.9,12.9-3.9,19.6c17.4,0,31.5,14.1,31.5,31.5
	c0,3.3-0.5,6.5-1.5,9.6c19-13.9,26-39,16.9-60.7C98.5,15.3,90.7,10.7,85.6,3.7z"/>
</svg>
